Coordinates
version=1
nRows=15
nColumns=34
inDegrees=yes

Units are S.I. units (second, meters, Newtons, ...)
If the header above contains a line with 'inDegrees', this indicates whether rotational values are in degrees (yes) or radians (no).

endheader
time	pelvis_tilt	pelvis_list	pelvis_rotation	pelvis_tx	pelvis_ty	pelvis_tz	hip_flexion_r	hip_adduction_r	hip_rotation_r	knee_angle_r	ankle_angle_r	subtalar_angle_r	mtp_angle_r	hip_flexion_l	hip_adduction_l	hip_rotation_l	knee_angle_l	ankle_angle_l	subtalar_angle_l	mtp_angle_l	lumbar_extension	lumbar_bending	lumbar_rotation	arm_flex_r	arm_add_r	arm_rot_r	elbow_flex_r	pro_sup_r	arm_flex_l	arm_add_l	arm_rot_l	elbow_flex_l	pro_sup_l
     11.85000000	     -0.33391875	      5.97364125	      6.45769308	     -0.06875770	      0.44657314	     -0.27966569	     93.86402851	     -3.84099624	      0.81676832	     52.74515255	    -14.45388966	    -30.16891373	      0.00000000	     91.98674634	     -4.23822848	    -23.42598129	     61.37184045	     -9.50007233	     -9.67175580	      0.00000000	    -61.82725018	     11.90909526	     20.54134757	    114.14495113	    -20.30444558	     48.93425363	     18.71027416	     66.42233543	    160.06771807	      1.14189592	     41.37384888	     56.84255708	     64.28854171
     11.86666670	     -1.31891868	      5.12432262	      5.60062944	     -0.05698708	      0.43235620	     -0.28197781	     96.48933327	     -3.07192822	     -0.00322029	     55.36298597	    -12.17695971	    -29.02111668	      0.00000000	     94.62740546	     -6.35403374	    -23.35632777	     65.18606254	     -5.22491465	     -7.53256320	      0.00000000	    -61.45034138	     12.76056853	     19.55130087	    111.40434839	    -19.05632676	     49.07107957	     18.94043983	     65.62449114	    156.63064671	      1.70999176	     37.37042649	     56.52302949	     64.20955024
     11.88333330	     -1.96412846	      4.65570438	      5.10170701	     -0.06269197	      0.43100211	     -0.27901255	     97.59589170	     -2.79475895	     -0.29799785	     56.04506202	    -11.43605767	    -26.77182242	      0.00000000	     95.89294905	     -7.50675272	    -23.59947348	     66.60201985	     -4.49547854	     -7.52967005	      0.00000000	    -61.90581213	     13.13453876	     17.48587531	    108.91282097	    -17.56524666	     48.99419867	     19.36310110	     65.22796430	    154.77828457	      2.47088370	     35.09503147	     55.26933083	     64.43139912
     11.90000000	     -2.64483679	      4.09056271	      4.45037137	     -0.05794035	      0.42413163	     -0.28006151	     99.02165306	     -2.23719396	     -1.21820073	     56.76138630	     -9.74344126	    -24.53099505	      0.00000000	     97.58796968	     -8.73414442	    -23.13884075	     68.61140144	     -2.51785677	     -6.87700150	      0.00000000	    -62.01765207	     13.41846735	     16.12247059	    105.90818321	    -17.00750443	     47.84400763	     20.73275564	     64.63028683	    151.57199137	      4.13614353	     30.52642886	     54.37021320	     64.90765315
     11.91666670	     -3.76612519	      3.75687698	      3.48049919	     -0.05179579	      0.41658798	     -0.28320712	    100.84224761	     -1.67508633	     -1.91877313	     57.53297657	     -8.36019175	    -22.21533775	      0.00000000	     99.33891609	    -10.06446739	    -23.14352907	     70.28744653	     -0.88517782	     -5.59080352	      0.00000000	    -61.72962930	     13.12765519	     14.04330490	    102.50766328	    -16.13526918	     46.51260748	     22.80107194	     64.38504315	    148.85897847	      5.08699309	     27.15186648	     55.11103493	     65.10082653
     11.93333330	     -4.58439942	      3.34441233	      2.58098617	     -0.05584986	      0.40875244	     -0.28117125	    102.25789379	     -1.11305605	     -3.16213269	     57.40665926	     -7.62327308	    -19.81769888	      0.00000000	    100.94543367	    -11.33706128	    -22.93862262	     71.81430093	      0.89694574	     -3.88000070	      0.00000000	    -61.68042992	     12.99392018	     12.36077864	     99.55749722	    -15.29568956	     44.25859820	     24.57586117	     64.31256294	    146.55247507	      5.58207703	     23.61227945	     55.12265850	     65.08005422
     11.95000000	     -6.24771593	      2.89989952	      1.99652569	     -0.04091294	      0.41076412	     -0.27868910	    104.08425630	     -0.72224100	     -4.53119189	     57.86889426	     -6.87609607	    -18.40867700	      0.00000000	    103.08916945	    -12.74648385	    -22.90656978	     72.93597006	      2.21231613	     -2.48213022	      0.00000000	    -60.37158006	     12.98171233	     11.33458588	     94.33950214	    -15.76807310	     38.70175662	     28.42888133	     65.11457356	    143.05877906	      6.53058700	     19.73574516	     57.25598601	     65.04533576
     11.96666670	     -7.35967106	      3.05718356	      1.86733606	     -0.03854061	      0.41895486	     -0.27643010	    104.56617879	     -0.59008975	     -4.88832511	     57.80364194	     -6.23271171	    -16.72666873	      0.00000000	    103.24161256	    -13.92126262	    -23.91987849	     72.77623372	      3.37490927	     -1.05699892	      0.00000000	    -59.70925700	     12.82576288	     10.29817240	     89.38919712	    -16.34428246	     32.51845291	     31.73184283	     67.38388952	    139.82390967	      7.62691602	     17.35341446	     58.79535846	     65.15061722
     11.98333330	     -7.70028770	      2.99213955	      1.98168355	     -0.03929671	      0.42128354	     -0.27550229	    104.38160666	     -0.69020948	     -5.52304259	     57.45777840	     -5.31271591	    -15.17734364	      0.00000000	    102.37215287	    -14.59346070	    -24.87739575	     71.62508181	      3.29194843	      0.05109676	      0.00000000	    -59.99984202	     13.12324936	      9.58076044	     85.87777240	    -16.38791530	     26.87323591	     33.90517537	     71.77238904	    138.20601740	      8.34998647	     15.76966603	     58.27466953	     65.24339938
     12.00000000	     -8.59492904	      2.96317944	      1.94191392	     -0.03134545	      0.42516867	     -0.27614515	    105.10250679	     -0.76248273	     -6.46120475	     57.44082852	     -5.20293892	    -14.37465501	      0.00000000	    102.32209057	    -15.57210109	    -25.63433882	     71.30179157	      3.32144675	      0.44493220	      0.00000000	    -59.09889289	     13.57498452	      9.10885861	     82.38578781	    -16.74943814	     25.24619655	     35.41161109	     73.88500917	    134.84690614	      8.71751613	     15.17587328	     59.90865112	     65.29394481
     12.01666670	     -8.54832438	      3.05719914	      1.94544096	     -0.03393588	      0.42348181	     -0.27193255	    105.34873296	     -0.89132620	     -7.29016572	     57.69428225	     -5.69109775	    -13.22872344	      0.00000000	    101.79656814	    -16.43800169	    -26.42121910	     71.40893429	      3.65065123	      0.99339686	      0.00000000	    -58.97946294	     13.49429700	      8.79005898	     78.05384813	    -16.52842621	     19.61751033	     38.20043997	     77.40637461	    132.73106018	      9.94892127	     14.02630456	     58.36284227	     65.38531958
     12.03333330	     -8.54384101	      3.16419684	      2.07682135	     -0.02740845	      0.42650456	     -0.27297981	    105.36959644	     -1.07839896	     -7.37055629	     57.90299297	     -5.55180101	    -12.67631153	      0.00000000	    101.35138621	    -17.05795379	    -27.41293801	     71.77967999	      3.87709390	      1.22704206	      0.00000000	    -58.30496841	     13.72636085	      8.16940584	     72.68959328	    -16.05904143	     14.79655669	     41.19895042	     83.89797499	    129.28240697	     10.72979614	     13.29430464	     59.51465236	     65.95956904
     12.05000000	     -8.96270710	      3.07191114	      1.79801421	     -0.01743253	      0.42425757	     -0.27886510	    106.69174516	     -1.51424755	     -8.30167686	     59.83716934	     -4.34413725	    -10.90219896	      0.00000000	    102.09504055	    -17.83531758	    -27.52927873	     72.97458142	      4.01641936	      1.35360791	      0.00000000	    -56.40570945	     14.33745847	      8.11144311	     67.54946623	    -16.59131823	     13.98204236	     42.73542285	     85.43243323	    124.50665121	     11.20336840	     13.76004525	     61.95549209	     66.31569298
     12.06666670	     -8.98017827	      3.30131778	      1.46805467	     -0.01685782	      0.42284360	     -0.27804833	    107.12813459	     -1.66402195	     -8.34831368	     60.20815645	     -3.99329407	     -9.30458282	      0.00000000	    102.57505063	    -18.47900819	    -27.93326119	     74.36436855	      6.87837190	      3.66444004	      0.00000000	    -54.81269036	     14.55253809	      7.94684102	     61.88457374	    -16.71704304	     11.89927122	     44.20013830	     87.17444592	    120.04211671	     12.16191513	     13.21656538	     63.39520001	     66.80091524
     12.08333330	     -9.22442008	      3.49221852	      1.28152135	     -0.01703960	      0.41766866	     -0.28469887	    107.96116481	     -2.34706318	     -8.66672481	     60.88433872	     -3.58921910	     -7.42149859	      0.00000000	    103.14347361	    -18.38097041	    -28.20371620	     74.86801343	      7.53994158	      3.44809084	      0.00000000	    -52.60717233	     15.21182672	      7.12783479	     56.36357948	    -16.46416889	     10.34432097	     45.87471377	     89.66226070	    116.08850528	     12.27337817	     13.40688267	     63.68711832	     67.63346653
